<?xml version="1.0" encoding="iso-8859-1"?>
<!-- Uploaded to: SVG Repo, www.svgrepo.com, Generator: SVG Repo Mixer Tools -->
<svg height="800px" width="800px" version="1.1" id="Layer_1" xmlns="http://www.w3.org/2000/svg" xmlns:xlink="http://www.w3.org/1999/xlink" 
	 viewBox="0 0 512 512" xml:space="preserve">
<circle style="fill:#324A5E;" cx="256" cy="256" r="256"/>
<path style="fill:#2B3B4E;" d="M318.147,504.387c105.381-26.283,184.918-117.853,193.143-229.273L398.222,162.047L258.874,319.21
	l-57.303,68.603L318.147,504.387z"/>
<path style="fill:#FFD15D;" d="M398.222,162.047c-56.554-4.051-92.813-27.133-114.564-48.269H228.34
	c-21.749,21.137-58.008,44.218-114.562,48.269c0,0-14.079,198.249,142.222,256C412.301,360.296,398.222,162.047,398.222,162.047z"/>
<path style="fill:#F9B54C;" d="M398.222,162.047c-56.554-4.051-92.813-27.133-114.564-48.269h-28.232v304.045
	c0.195,0.072,0.379,0.152,0.574,0.224C412.301,360.296,398.222,162.047,398.222,162.047z"/>
<path style="fill:#FC6F58;" d="M374.675,179.243c-47.192-3.381-77.448-22.64-95.596-40.277H232.92
	c-18.149,17.637-48.406,36.898-95.596,40.277c0,0-11.748,165.426,118.675,213.616C386.424,344.671,374.675,179.243,374.675,179.243z
	"/>
<path style="fill:#F1543F;" d="M374.675,179.243c-47.192-3.381-77.448-22.64-95.596-40.277h-23.654v253.669
	c0.195,0.072,0.379,0.152,0.574,0.224C386.424,344.671,374.675,179.243,374.675,179.243z"/>
</svg>