<?xml version="1.0" encoding="iso-8859-1"?>
<!-- Uploaded to: SVG Repo, www.svgrepo.com, Generator: SVG Repo Mixer Tools -->
<svg height="800px" width="800px" version="1.1" id="Layer_1" xmlns="http://www.w3.org/2000/svg" xmlns:xlink="http://www.w3.org/1999/xlink" 
	 viewBox="0 0 496.2 496.2" xml:space="preserve">
<path style="fill:#32BEA6;" d="M0,248.1C0,111.1,111.1,0,248.1,0s248.1,111.1,248.1,248.1S385.1,496.2,248.1,496.2S0,385.1,0,248.1z
	"/>
<path style="fill:#EFE020;" d="M329.3,135.7c0,0,20.2-36.9,39.4-25.2c0,0,11.7,6.7,10.7,21.7c0,0-20.2-16.7-25.6,17.4L329.3,135.7z"
	/>
<polygon style="fill:#D8C221;" points="369.5,156.7 379.4,132.2 360.6,118.9 352.6,148.6 "/>
<g>
	<path style="fill:#E8D523;" d="M369.5,156.7c0,0,4.1-5.4,7-11.9s2.8-12.7,2.8-12.7l-2.6-2.8l-5.1-0.9c0,0,2.3,2.8,0.4,8.8
		c-1.3,4.1-8.8,15.3-8.8,15.3L369.5,156.7z"/>
	<path style="fill:#E8D523;" d="M379.4,132.2c0.3-3.8-0.3-7-1.3-9.8c-8.9-10.3-26-1.3-36.2,20.4l11.9,6.7
		C359.1,115.5,379.4,132.2,379.4,132.2z"/>
</g>
<path style="fill:#E0CE20;" d="M226.6,150.8L97.5,299.1l91.6,44.4c0,0,168.3-148.8,195.3-182.8l-84.5-38.9
	C288.1,118,267.8,102.5,226.6,150.8z"/>
<path style="fill:#EFE020;" d="M316.9,191.5l-127.8,152l9.9,31.2c0,0,55.4-55.4,88.1-63.9c0,0,60.4-2.1,87.3-36.2
	c0,0,61.8-57.1,13.8-110.8C382.6,157.6,358.1,143.3,316.9,191.5z"/>
<path style="fill:#E0CE20;" d="M100.7,346.5c0,0-2.8-4.4-13.3-25c-5.9-11.7-3.7-23.4,12.2-24l89.5,46l13.8,29.6
	c0,0,2.7,16.5-16.5,15.4L100.7,346.5z"/>
<path style="fill:#EAD434;" d="M100.7,346.5c0,0-2.8-4.4-13.3-25c-5.9-11.7-3.7-23.4,12.2-24l89.5,46l13.8,29.6
	c0,0,2.7,16.5-16.5,15.4L100.7,346.5z"/>
<polygon style="fill:#DDC328;" points="182.4,372.1 99.1,334.3 95.3,327.9 173.6,363.6 "/>
<path style="fill:#E0CE20;" d="M175.8,383.3l-11.6-22.1c-5.9-11.7-4.3-25.8,11.3-26.4c2.7-0.1,13.6,8.7,13.6,8.7l5.8,24.6L183.1,387
	L175.8,383.3z"/>
<g>
	<path style="fill:#EFE020;" d="M183.1,387l6-43.5l13.8,29.6c0,0,2.7,16.5-16.5,15.4L183.1,387z"/>
	<path style="fill:#EFE020;" d="M183.1,387c0,0-1.1-2-11.6-22.5c-5.9-11.7-4.9-24.3,10.7-24.9c2.7-0.1,6.9,3.9,6.9,3.9l13,27.9
		L183.1,387z"/>
</g>
<polygon style="fill:#D1BF1C;" points="283.9,217.1 209.8,183 245.5,142.5 317.4,176.6 "/>
<polygon style="fill:#A08F15;" points="283.9,217.1 253,203.1 245.5,142.5 317.4,176.6 "/>
</svg>